<?xml version="1.0" encoding="UTF-8"?>
<svg width="75px" height="20px" viewBox="0 0 75 20" version="1.1" xmlns="http://www.w3.org/2000/svg" xmlns:xlink="http://www.w3.org/1999/xlink">
    <!-- Generator: Sketch 61.2 (89653) - https://sketch.com -->
    <title>ToDoApp</title>
    <desc>Created with Sketch.</desc>
    <g id="Page-1" stroke="none" stroke-width="1" fill="none" fill-rule="evenodd">
        <path d="M5.64453125,15 L5.64453125,3.05664062 L8.37890625,3.05664062 L8.37890625,0.72265625 L0.263671875,0.72265625 L0.263671875,3.05664062 L2.99804688,3.05664062 L2.99804688,15 L5.64453125,15 Z M13.5644531,15.1953125 C14.8795573,15.1953125 15.9147135,14.6988932 16.6699219,13.7060547 C17.4251302,12.7132161 17.8027344,11.3248698 17.8027344,9.54101562 C17.8027344,7.81575521 17.4235026,6.4469401 16.6650391,5.43457031 C15.9065755,4.42220052 14.8860677,3.91601562 13.6035156,3.91601562 C12.2753906,3.91601562 11.2369792,4.4124349 10.4882812,5.40527344 C9.73958333,6.39811198 9.36523438,7.77669271 9.36523438,9.54101562 C9.36523438,10.686849 9.53776042,11.6878255 9.8828125,12.5439453 C10.2278646,13.4000651 10.719401,14.0559896 11.3574219,14.5117188 C11.9954427,14.9674479 12.7311198,15.1953125 13.5644531,15.1953125 Z M13.5839844,12.9785156 C13.0371094,12.9785156 12.639974,12.6888021 12.3925781,12.109375 C12.1451823,11.5299479 12.0214844,10.6738281 12.0214844,9.54101562 C12.0214844,8.40169271 12.1451823,7.55045573 12.3925781,6.98730469 C12.639974,6.42415365 13.0371094,6.14257812 13.5839844,6.14257812 C14.124349,6.14257812 14.5198568,6.42415365 14.7705078,6.98730469 C15.0211589,7.55045573 15.1464844,8.40169271 15.1464844,9.54101562 C15.1464844,11.8326823 14.625651,12.9785156 13.5839844,12.9785156 Z M23.28125,15 C25.0846354,15 26.4664714,14.3766276 27.4267578,13.1298828 C28.3870443,11.883138 28.8671875,10.0813802 28.8671875,7.72460938 C28.8671875,5.51106771 28.4049479,3.7906901 27.4804688,2.56347656 C26.5559896,1.33626302 25.2636719,0.72265625 23.6035156,0.72265625 L23.6035156,0.72265625 L19.7851562,0.72265625 L19.7851562,15 L23.28125,15 Z M23.3007812,12.6757812 L22.4414062,12.6757812 L22.4414062,3.01757812 L23.5058594,3.01757812 C25.2636719,3.01757812 26.1425781,4.61263021 26.1425781,7.80273438 C26.1425781,9.43033854 25.9114583,10.6494141 25.4492188,11.4599609 C24.9869792,12.2705078 24.2708333,12.6757812 23.3007812,12.6757812 L23.3007812,12.6757812 Z M34.609375,15.1953125 C35.9244792,15.1953125 36.9596354,14.6988932 37.7148438,13.7060547 C38.4700521,12.7132161 38.8476562,11.3248698 38.8476562,9.54101562 C38.8476562,7.81575521 38.4684245,6.4469401 37.7099609,5.43457031 C36.9514974,4.42220052 35.9309896,3.91601562 34.6484375,3.91601562 C33.3203125,3.91601562 32.281901,4.4124349 31.5332031,5.40527344 C30.7845052,6.39811198 30.4101562,7.77669271 30.4101562,9.54101562 C30.4101562,10.686849 30.5826823,11.6878255 30.9277344,12.5439453 C31.2727865,13.4000651 31.7643229,14.0559896 32.4023438,14.5117188 C33.0403646,14.9674479 33.7760417,15.1953125 34.609375,15.1953125 Z M34.6289062,12.9785156 C34.0820312,12.9785156 33.6848958,12.6888021 33.4375,12.109375 C33.1901042,11.5299479 33.0664062,10.6738281 33.0664062,9.54101562 C33.0664062,8.40169271 33.1901042,7.55045573 33.4375,6.98730469 C33.6848958,6.42415365 34.0820312,6.14257812 34.6289062,6.14257812 C35.1692708,6.14257812 35.5647786,6.42415365 35.8154297,6.98730469 C36.0660807,7.55045573 36.1914062,8.40169271 36.1914062,9.54101562 C36.1914062,11.8326823 35.6705729,12.9785156 34.6289062,12.9785156 Z M47.1679688,15 L47.9882812,11.3964844 L51.7089844,11.3964844 L52.5292969,15 L55.1953125,15 L51.6503906,0.6640625 L48.046875,0.6640625 L44.5117188,15 L47.1679688,15 Z M51.2109375,9.04296875 L48.515625,9.04296875 C49.0625,6.640625 49.4010417,5.10253906 49.53125,4.42871094 C49.6614583,3.75488281 49.7688802,3.13802083 49.8535156,2.578125 C49.8860677,2.8515625 49.9820964,3.39355469 50.1416016,4.20410156 C50.3011068,5.01464844 50.4036458,5.52083333 50.4492188,5.72265625 L50.4492188,5.72265625 L51.2109375,9.04296875 Z M58.9160156,19.8046875 L58.9160156,15.3613281 C58.9160156,15.1790365 58.8639323,14.6451823 58.7597656,13.7597656 L58.7597656,13.7597656 L58.8964844,13.7597656 C59.2089844,14.2936198 59.5458984,14.6663411 59.9072266,14.8779297 C60.2685547,15.0895182 60.6835938,15.1953125 61.1523438,15.1953125 C62.1549479,15.1953125 62.9459635,14.6940104 63.5253906,13.6914062 C64.1048177,12.6888021 64.3945312,11.3053385 64.3945312,9.54101562 C64.3945312,7.75065104 64.1145833,6.3655599 63.5546875,5.38574219 C62.9947917,4.40592448 62.2200521,3.91601562 61.2304688,3.91601562 C60.2018229,3.91601562 59.4173177,4.45638021 58.8769531,5.53710938 L58.8769531,5.53710938 L58.7597656,5.53710938 L58.3105469,4.12109375 L56.2988281,4.12109375 L56.2988281,19.8046875 L58.9160156,19.8046875 Z M60.3710938,12.9589844 C59.84375,12.9589844 59.4661458,12.6855469 59.2382812,12.1386719 C59.0104167,11.5917969 58.8964844,10.719401 58.8964844,9.52148438 L58.8964844,9.52148438 L58.8964844,9.1796875 C58.9095052,8.0859375 59.0283203,7.3030599 59.2529297,6.83105469 C59.4775391,6.35904948 59.84375,6.12304688 60.3515625,6.12304688 C60.8268229,6.12304688 61.1767578,6.40299479 61.4013672,6.96289062 C61.6259766,7.52278646 61.7382812,8.36914062 61.7382812,9.50195312 C61.7382812,11.8066406 61.2825521,12.9589844 60.3710938,12.9589844 Z M68.8378906,19.8046875 L68.8378906,15.3613281 C68.8378906,15.1790365 68.7858073,14.6451823 68.6816406,13.7597656 L68.6816406,13.7597656 L68.8183594,13.7597656 C69.1308594,14.2936198 69.4677734,14.6663411 69.8291016,14.8779297 C70.1904297,15.0895182 70.6054688,15.1953125 71.0742188,15.1953125 C72.0768229,15.1953125 72.8678385,14.6940104 73.4472656,13.6914062 C74.0266927,12.6888021 74.3164062,11.3053385 74.3164062,9.54101562 C74.3164062,7.75065104 74.0364583,6.3655599 73.4765625,5.38574219 C72.9166667,4.40592448 72.1419271,3.91601562 71.1523438,3.91601562 C70.1236979,3.91601562 69.3391927,4.45638021 68.7988281,5.53710938 L68.7988281,5.53710938 L68.6816406,5.53710938 L68.2324219,4.12109375 L66.2207031,4.12109375 L66.2207031,19.8046875 L68.8378906,19.8046875 Z M70.2929688,12.9589844 C69.765625,12.9589844 69.3880208,12.6855469 69.1601562,12.1386719 C68.9322917,11.5917969 68.8183594,10.719401 68.8183594,9.52148438 L68.8183594,9.52148438 L68.8183594,9.1796875 C68.8313802,8.0859375 68.9501953,7.3030599 69.1748047,6.83105469 C69.3994141,6.35904948 69.765625,6.12304688 70.2734375,6.12304688 C70.7486979,6.12304688 71.0986328,6.40299479 71.3232422,6.96289062 C71.5478516,7.52278646 71.6601562,8.36914062 71.6601562,9.50195312 C71.6601562,11.8066406 71.2044271,12.9589844 70.2929688,12.9589844 Z" id="ToDoApp" fill="#379DFF" fill-rule="nonzero"></path>
    </g>
</svg>